<?xml version="1.0" encoding="utf-8"?>
<!-- Generator: Adobe Illustrator 21.1.0, SVG Export Plug-In . SVG Version: 6.00 Build 0)  -->
<svg version="1.1" id="Layer_1" xmlns="http://www.w3.org/2000/svg" xmlns:xlink="http://www.w3.org/1999/xlink" x="0px" y="0px"
	 viewBox="0 0 142.6 233" style="enable-background:new 0 0 142.6 233;" xml:space="preserve">
<style type="text/css">
	.st0{fill:#465B65;}
	.st1{fill:#FDC113;}
</style>
<g>
	
		<image style="overflow:visible;opacity:0.75;" width="720" height="1097" xlink:href="4201AA77C9ED49C8.png"  transform="matrix(0.24 0 0 0.24 -8.1292 -8.2388)">
	</image>
	<g>
		<g>
			<path class="st0" d="M71.3,0c-30,0-54.4,24.4-54.4,54.5V130c0,2.3,1.9,4.2,4.2,4.2h18c1.6,0,2.9-1.3,2.9-2.9V54.5
				c0-22.9,26.3-39.7,50.3-21.8c5.2,3.9,8.2,10.1,8.2,16.6v35.9c0,1.6,1.3,2.9,2.9,2.9h18c2.3,0,4.2-1.9,4.2-4.2V54.5
				C125.7,24.4,101.3,0,71.3,0z"/>
			<path class="st1" d="M21,115.5h100.7c11.6,0,21,9.4,21,21V212c0,11.6-9.4,21-21,21H21c-11.6,0-21-9.4-21-21v-75.6
				C0,124.9,9.4,115.5,21,115.5z"/>
			<path class="st0" d="M92.2,161.8c0-11.6-9.3-21-20.9-21c-11.6,0-21,9.3-21,20.9c0,8,4.5,15.3,11.7,18.9l-3.2,22.6
				c-0.3,2.3,1.3,4.4,3.6,4.7c0.2,0,0.4,0,0.6,0h16.8c2.3,0,4.2-1.8,4.2-4.1c0-0.2,0-0.4,0-0.6l-3.2-22.6
				C87.7,176.9,92.2,169.7,92.2,161.8z"/>
		</g>
	</g>
</g>
</svg>
