<?xml version="1.0" encoding="utf-8"?>
<!-- Generator: Adobe Illustrator 21.1.0, SVG Export Plug-In . SVG Version: 6.00 Build 0)  -->
<svg version="1.1" id="Layer_1" xmlns="http://www.w3.org/2000/svg" xmlns:xlink="http://www.w3.org/1999/xlink" x="0px" y="0px"
	 viewBox="0 0 138.9 269" style="enable-background:new 0 0 138.9 269;" xml:space="preserve">
<style type="text/css">
	.st0{fill:#FCD463;}
	.st1{fill:#E66454;}
	.st2{fill:#DC8743;}
	.st3{fill:#CE422C;}
	.st4{fill:#F5C359;}
	.st5{fill:#D25342;}
</style>
<g>
	<circle class="st0" cx="69.4" cy="199.6" r="69.4"/>
	<circle class="st1" cx="69.4" cy="199.6" r="56.5"/>
	<circle class="st0" cx="69.4" cy="199.6" r="44.2"/>
	<polygon class="st2" points="69.4,165.5 77.4,190.1 103.3,190.1 82.4,205.4 90.4,229.9 69.4,214.7 48.5,229.9 56.5,205.4 
		35.6,190.1 61.5,190.1 	"/>
	<rect x="37.3" class="st3" width="64.9" height="27"/>
	<polygon class="st1" points="71.9,139.1 66.3,137.9 101.6,0 128.8,22.7 	"/>
	<circle class="st4" cx="69.6" cy="135.9" r="4.7"/>
	<path class="st5" d="M71.8,134.8L37.2,0L10.1,22.9l55.1,114.3c0.8,1.6,2.6,2.4,4.4,1.8C71.3,138.3,72.2,136.5,71.8,134.8z"/>
</g>
</svg>
