<svg id="Layer_1" data-name="Layer 1" xmlns="http://www.w3.org/2000/svg" viewBox="0 0 233.79 245"><defs><style>.cls-1{fill:#fff;}</style></defs><title>logo</title><path class="cls-1" d="M52.74,194.94H22.22a6.83,6.83,0,0,1-6.82-6.82V46.48a6.83,6.83,0,0,1,6.82-6.81H52.74a6.82,6.82,0,0,1,6.81,6.81v79.71H57.18V46.48A4.44,4.44,0,0,0,52.74,42H22.22a4.45,4.45,0,0,0-4.45,4.44V188.12a4.46,4.46,0,0,0,4.45,4.45H52.74a4.45,4.45,0,0,0,4.44-4.45V146.94h2.37v41.18A6.82,6.82,0,0,1,52.74,194.94Z" transform="translate(0 -13)"/><path class="cls-1" d="M209.23,194.94H178.71a6.83,6.83,0,0,1-6.82-6.82V130.34h2.37v57.78a4.46,4.46,0,0,0,4.45,4.45h30.52a4.45,4.45,0,0,0,4.44-4.45V61.3a4.45,4.45,0,0,0-4.44-4.45H178.71a4.46,4.46,0,0,0-4.45,4.45v46.82h-2.37V61.3a6.83,6.83,0,0,1,6.82-6.82h30.52a6.83,6.83,0,0,1,6.82,6.82V188.12A6.83,6.83,0,0,1,209.23,194.94Z" transform="translate(0 -13)"/><path class="cls-1" d="M106.09,194.94H75.57c-4,0-6.81-3.41-6.81-8.3V18.33c0-2.4,3.14-5.33,6.81-5.33h30.52a6.83,6.83,0,0,1,6.82,6.82v88.89h-2.37V19.82a4.45,4.45,0,0,0-4.45-4.45H75.57c-2.52,0-4.44,2.1-4.44,3V186.64c0,3.6,1.74,5.93,4.44,5.93h30.52a4.45,4.45,0,0,0,4.45-4.45V126.49h2.37v61.63A6.83,6.83,0,0,1,106.09,194.94Z" transform="translate(0 -13)"/><path class="cls-1" d="M158.9,194.94H128.38c-4,0-6.81-3.41-6.81-8.3V26.93c0-2.4,3.14-5.34,6.81-5.34H158.9a6.83,6.83,0,0,1,6.82,6.82v80.3h-2.37V28.41A4.46,4.46,0,0,0,158.9,24H128.38c-2.52,0-4.44,2.11-4.44,3V186.64c0,3.6,1.74,5.93,4.44,5.93H158.9a4.46,4.46,0,0,0,4.45-4.45V126.49h2.37v61.63A6.83,6.83,0,0,1,158.9,194.94Z" transform="translate(0 -13)"/><path class="cls-1" d="M209.38,74.63H178.56V64.26h30.82Zm-28.45-2.37H207V66.63H180.93Z" transform="translate(0 -13)"/><path class="cls-1" d="M209.38,90.64H178.56V80.26h30.82Zm-28.45-2.38H207V82.63H180.93Z" transform="translate(0 -13)"/><path class="cls-1" d="M159.05,42H128.23V31.67h30.82Zm-28.44-2.37h26.07V34H130.61Z" transform="translate(0 -13)"/><path class="cls-1" d="M159.05,57.15H128.23V46.78h30.82Zm-28.44-2.37h26.07V49.15H130.61Z" transform="translate(0 -13)"/><path class="cls-1" d="M159.05,72.26H128.23V61.89h30.82Zm-28.44-2.37h26.07V64.26H130.61Z" transform="translate(0 -13)"/><path class="cls-1" d="M52.89,77H22.07V57.15H52.89ZM24.44,74.63H50.52V59.52H24.44Z" transform="translate(0 -13)"/><path class="cls-1" d="M106.24,53H75.43V22.19h30.81ZM77.8,50.63h26.07V24.56H77.8Z" transform="translate(0 -13)"/><rect class="cls-1" y="187.87" width="233.79" height="3.56"/><path class="cls-1" d="M48,179.18V160.46c0-.46.06-1.75.2-3.89h-.08c-.38,1-.69,1.76-.95,2.3l-9.38,20.31h-.59L27.82,159A15.59,15.59,0,0,1,27,156.5h-.09c.08,1.18.13,2.35.13,3.51v19.17H25.17V152.8h1.7l9.84,21.25c.06.12.12.29.2.49s.15.42.24.63.25.67.38,1.07h.11l.21-.59c0-.05.22-.63.62-1.75l9.69-21.1h1.62v26.38Z" transform="translate(0 -13)"/><path class="cls-1" d="M84.37,179.18V152.8H96.69v1.68H86.19v10.57h9.75v1.66H86.19v10.81H97.3v1.66Z" transform="translate(0 -13)"/><path class="cls-1" d="M152.79,168.64q0,11-9.38,11-8.91,0-8.92-10.6V152.8h1.81v16q0,9.18,7.46,9.17Q151,178,151,169V152.8h1.8Z" transform="translate(0 -13)"/><path class="cls-1" d="M187,178.24v-2.08a10.6,10.6,0,0,0,5.74,1.8,7.41,7.41,0,0,0,4.69-1.27,4.36,4.36,0,0,0,1.6-3.58,4.65,4.65,0,0,0-1.08-3.23,21.22,21.22,0,0,0-4.66-3.28q-4-2.34-5.08-3.91a6.33,6.33,0,0,1-1.07-3.63,6.17,6.17,0,0,1,2.17-4.75,8.36,8.36,0,0,1,5.8-1.95,14.92,14.92,0,0,1,4.71.79v1.92a11.89,11.89,0,0,0-5-1,6.28,6.28,0,0,0-4.26,1.36,4.37,4.37,0,0,0-1.57,3.46,4.67,4.67,0,0,0,1.07,3.22,21.53,21.53,0,0,0,4.65,3.25A16.67,16.67,0,0,1,199.7,169a6.08,6.08,0,0,1,1.22,3.74,6.4,6.4,0,0,1-2.1,4.95,8.58,8.58,0,0,1-5.95,1.91,13.81,13.81,0,0,1-3.14-.42A10.29,10.29,0,0,1,187,178.24Z" transform="translate(0 -13)"/><path class="cls-1" d="M19.15,257.19V210.55h3.22v43.71h18.7v2.93Z" transform="translate(0 -13)"/><path class="cls-1" d="M49.66,257.19V210.55h3.22v46.64Z" transform="translate(0 -13)"/><path class="cls-1" d="M79.64,257.19H77.23l-17-46.64H63.8l13.5,37.56a26.56,26.56,0,0,1,1.2,4.43h.13A33.73,33.73,0,0,1,80,248.05l14.35-37.5h3.44Z" transform="translate(0 -13)"/><path class="cls-1" d="M128.94,257.19l-6.21-13.66q-1.92-4.23-3.84-5.68a7.79,7.79,0,0,0-4.81-1.44h-5.79v20.78h-3.22V210.55H118q6.18,0,9.71,3.34a11.53,11.53,0,0,1,3.53,8.79,12.58,12.58,0,0,1-2.89,8.43,13.58,13.58,0,0,1-8.1,4.35v.13q2.76,1.11,5.4,6.74l6.92,14.86Zm-20.65-43.68v20h8q5.34,0,8.47-2.8a9.72,9.72,0,0,0,3.14-7.67,8.86,8.86,0,0,0-2.83-7q-2.82-2.52-8.09-2.52Z" transform="translate(0 -13)"/><path class="cls-1" d="M161.23,258q-9.89,0-15.75-6.57t-5.87-17.07q0-11.16,6-17.87t16.47-6.72q9.44,0,15.27,6.46t5.84,16.92q0,11.58-6,18.22T161.23,258Zm.33-45.3a17.12,17.12,0,0,0-13.38,5.89q-5.27,5.88-5.26,15.41t5,15.33q5,5.71,13.27,5.71,8.64,0,13.69-5.64t5-15.73q0-9.88-4.93-15.43T161.56,212.7Z" transform="translate(0 -13)"/><path class="cls-1" d="M191.28,255.53v-3.68A18.69,18.69,0,0,0,201.43,255q5.46,0,8.29-2.26a7.62,7.62,0,0,0,2.83-6.32,8.24,8.24,0,0,0-1.9-5.71q-1.91-2.13-8.25-5.81c-4.72-2.75-7.72-5.05-9-6.91a11.13,11.13,0,0,1-1.89-6.42,10.86,10.86,0,0,1,3.84-8.39q3.84-3.45,10.24-3.45a26.1,26.1,0,0,1,8.33,1.4v3.38a21.07,21.07,0,0,0-8.75-1.85,11.09,11.09,0,0,0-7.53,2.41,7.73,7.73,0,0,0-2.78,6.11,8.23,8.23,0,0,0,1.9,5.69q1.91,2.11,8.22,5.76,6.53,3.71,8.69,6.58a10.69,10.69,0,0,1,2.17,6.62,11.26,11.26,0,0,1-3.73,8.75Q208.42,258,201.62,258a24.19,24.19,0,0,1-5.54-.75A18.16,18.16,0,0,1,191.28,255.53Z" transform="translate(0 -13)"/></svg>