<svg id="Layer_1" data-name="Layer 1" xmlns="http://www.w3.org/2000/svg" viewBox="0 0 100.24 99.81"><defs><style>.cls-1{fill:#fff;}</style></defs><title>calendar</title><path class="cls-1" d="M92.41,13.11H87.55V11.67a7.85,7.85,0,0,0-7.83-7.83h-.11a7.85,7.85,0,0,0-7.83,7.83v1.44H28.46V11.67a7.85,7.85,0,0,0-7.83-7.83h-.11a7.86,7.86,0,0,0-7.84,7.83v1.44H7.83A7.85,7.85,0,0,0,0,20.94V95.82a7.85,7.85,0,0,0,7.83,7.83H92.41a7.85,7.85,0,0,0,7.83-7.83V20.94A7.85,7.85,0,0,0,92.41,13.11Zm-17.5-1.44A4.7,4.7,0,0,1,79.61,7h.11a4.71,4.71,0,0,1,4.7,4.69V25.61a4.71,4.71,0,0,1-4.7,4.7h-.11a4.71,4.71,0,0,1-4.7-4.7Zm-59.09,0A4.7,4.7,0,0,1,20.52,7h.11a4.71,4.71,0,0,1,4.7,4.69V25.61a4.71,4.71,0,0,1-4.7,4.7h-.11a4.71,4.71,0,0,1-4.7-4.7ZM92.41,97.39H7.83a1.58,1.58,0,0,1-1.56-1.57v-55H94v55A1.59,1.59,0,0,1,92.41,97.39Z" transform="translate(0 -3.84)"/></svg>