<?xml version="1.0" encoding="utf-8"?>
<!-- Generator: Adobe Illustrator 21.1.0, SVG Export Plug-In . SVG Version: 6.00 Build 0)  -->
<svg version="1.1" id="Layer_1" xmlns="http://www.w3.org/2000/svg" xmlns:xlink="http://www.w3.org/1999/xlink" x="0px" y="0px"
	 viewBox="0 0 68.6 82.7" style="enable-background:new 0 0 68.6 82.7;" xml:space="preserve">
<style type="text/css">
	.st0{fill:#8D8B77;}
	.st1{fill:#696968;}
	.st2{fill:#7F7F7A;}
	.st3{fill:#FFF3F0;}
	.st4{fill:#F2F0F0;}
	.st5{fill:#B7C4CE;}
	.st6{fill:#678D98;}
	.st7{fill:#3F5A5A;}
</style>
<g>
	<g>
		<path class="st0" d="M18.9,23l-6.7-7.9c-0.5-0.6-1.3-0.6-1.9-0.2l-4.2,3.6c-0.3,0.2-0.4,0.6-0.5,0.9c0,0.4,0.1,0.7,0.3,1l6.7,7.9
			c0.3,0.3,0.6,0.5,1,0.5c0.3,0,0.6-0.1,0.9-0.3l4.2-3.6c0.3-0.2,0.4-0.6,0.5-0.9C19.3,23.6,19.2,23.3,18.9,23L18.9,23z"/>
		<path class="st1" d="M15,12.9l-2.9-3.3c-0.5-0.6-1.3-0.6-1.9-0.1l-9.8,8.4C0.2,18.1,0,18.5,0,18.8c0,0.4,0.1,0.7,0.3,1l2.9,3.3
			c0.3,0.3,0.6,0.5,1,0.5c0.3,0,0.6-0.1,0.9-0.3l9.8-8.4c0.3-0.2,0.4-0.6,0.5-0.9C15.3,13.6,15.2,13.2,15,12.9L15,12.9z"/>
		<path class="st0" d="M62.9,20.1c0-0.4-0.2-0.7-0.4-0.9l-4.2-3.7c-0.6-0.5-1.4-0.4-1.9,0.1l-6.8,7.8c-0.2,0.3-0.4,0.6-0.3,1
			c0,0.4,0.2,0.7,0.4,0.9l4.2,3.7c0.2,0.2,0.6,0.3,0.9,0.3c0.4,0,0.7-0.1,1-0.5l6.8-7.8C62.8,20.8,62.9,20.4,62.9,20.1z"/>
		<path class="st1" d="M68.1,17.9l-9.8-8.4c-0.3-0.2-0.6-0.3-1-0.3c-0.4,0-0.7,0.2-0.9,0.5l-2.9,3.3c-0.5,0.6-0.4,1.4,0.1,1.9
			l9.8,8.4c0.2,0.2,0.5,0.3,0.9,0.3c0,0,0.1,0,0.1,0c0.4,0,0.7-0.2,0.9-0.5l2.9-3.3C68.7,19.2,68.6,18.4,68.1,17.9L68.1,17.9z"/>
		<path class="st1" d="M30.3,7.5h8.1v11.6h-8.1V7.5z"/>
		<path class="st2" d="M39.4,0H24.5C23.1,0,22,1.1,22,2.5v3.1c0,1.4,1.1,2.5,2.5,2.5h14.8l3.6-1V1L39.4,0z"/>
		<path class="st1" d="M46.9,2.5c0-1.4-1.1-2.5-2.5-2.5H39c1.4,0,2.6,1.1,2.6,2.5v3.1c0,1.4-1.2,2.5-2.6,2.5h5.4
			c1.4,0,2.5-1.1,2.5-2.5V2.5z"/>
		<path class="st2" d="M25.7,81.6C7.5,76.8-3.4,58.1,1.4,39.8c3.9-14.7,16.8-24.6,31.2-25.4c3.5-0.2,33.8,5.4,33.8,33.1
			c0,20.3-18.5,36.4-34.6,35.1C29.8,82.5,27.7,82.1,25.7,81.6L25.7,81.6z"/>
		<path class="st1" d="M34.5,14.4c-0.9,0-1.8,0-2.7,0.1c17.6,1.4,31.5,16.1,31.5,34s-13.9,32.7-31.5,34c0.9,0.1,1.8,0.1,2.7,0.1
			c18.9,0,34.2-15.3,34.2-34.2S53.3,14.4,34.5,14.4L34.5,14.4z"/>
		<circle class="st3" cx="34.5" cy="48.6" r="26.6"/>
		<path class="st4" d="M37.9,22.2c-2.1-0.3-4.1-0.3-6.1-0.1c0.3,0,0.5,0.1,0.8,0.1C47.1,24.1,57.4,37.5,55.5,52
			c-1.6,12.5-11.7,21.8-23.7,23c14.2,1.4,27.1-8.7,29-23C62.7,37.5,52.5,24.1,37.9,22.2L37.9,22.2z"/>
		<g>
			<path class="st5" d="M33.2,28.3V25c0-0.7,0.5-1.3,1.2-1.3c0.7,0,1.2,0.5,1.2,1.2v3.4c0,0.7-0.6,1.2-1.2,1.2
				C33.8,29.5,33.2,28.9,33.2,28.3z"/>
			<path class="st5" d="M48.9,35.5c-0.3,0-0.6-0.1-0.9-0.4c-0.5-0.5-0.5-1.3,0-1.7l2.4-2.4c0.5-0.5,1.3-0.5,1.7,0
				c0.5,0.5,0.5,1.3,0,1.7l-2.4,2.4C49.5,35.4,49.2,35.5,48.9,35.5z"/>
			<path class="st5" d="M58.3,49.9l-3.3,0c-0.7,0-1.3-0.5-1.3-1.2c0-0.7,0.5-1.2,1.2-1.2h3.3c0.7,0,1.3,0.5,1.3,1.2
				C59.5,49.4,59,49.9,58.3,49.9z"/>
			<path class="st5" d="M51.4,66.7c-0.3,0-0.6-0.1-0.9-0.4l-2.4-2.4c-0.5-0.5-0.5-1.3,0-1.7c0.5-0.5,1.3-0.5,1.7,0l2.4,2.4
				c0.5,0.5,0.5,1.3,0,1.7C52,66.6,51.7,66.7,51.4,66.7z"/>
			<path class="st5" d="M33.4,72.4v-3.3c0-0.6,0.4-1.2,1.1-1.3c0.7-0.1,1.4,0.5,1.4,1.2v3.4c0,0.7-0.6,1.3-1.4,1.2
				C33.9,73.6,33.4,73,33.4,72.4z"/>
			<path class="st5" d="M17.8,66.8c-0.3,0-0.6-0.1-0.9-0.4c-0.5-0.5-0.5-1.3,0-1.7l2.4-2.4c0.5-0.5,1.3-0.5,1.7,0
				c0.5,0.5,0.5,1.3,0,1.7l-2.4,2.4C18.4,66.7,18.1,66.8,17.8,66.8z"/>
			<path class="st5" d="M14.2,49.9l-3.3,0c-0.7,0-1.3-0.5-1.3-1.2c0-0.7,0.5-1.2,1.2-1.2h3.3c0.7,0,1.3,0.5,1.3,1.2
				C15.4,49.4,14.8,49.9,14.2,49.9z"/>
			<path class="st5" d="M20.1,35.6c-0.3,0-0.6-0.1-0.9-0.4l-2.4-2.4c-0.5-0.5-0.5-1.3,0-1.7s1.3-0.5,1.7,0l2.4,2.4
				c0.5,0.5,0.5,1.3,0,1.7C20.7,35.5,20.4,35.6,20.1,35.6z"/>
		</g>
		<path class="st6" d="M33.1,46.5v-8.6c0-0.7,0.5-1.3,1.1-1.3c0.8-0.1,1.5,0.5,1.5,1.3v8.7c0,0.8-0.7,1.4-1.5,1.3
			C33.6,47.8,33.1,47.2,33.1,46.5z"/>
		<path class="st6" d="M45.6,60.8c-0.3,0-0.7-0.1-0.9-0.4L35,50.7c-0.5-0.5-0.5-1.4,0-1.9c0.5-0.5,1.4-0.5,1.9,0l9.7,9.7
			c0.5,0.5,0.5,1.4,0,1.9C46.3,60.7,46,60.8,45.6,60.8z"/>
		<path class="st7" d="M34.6,51.1c-1.5,0-2.7-1.2-2.7-2.7s1.2-2.7,2.7-2.7c1.5,0,2.7,1.2,2.7,2.7S36.1,51.1,34.6,51.1z"/>
	</g>
</g>
</svg>
