<svg id="Layer_1" data-name="Layer 1" xmlns="http://www.w3.org/2000/svg" xmlns:xlink="http://www.w3.org/1999/xlink" viewBox="0 0 74.09 71"><defs><style>.cls-1{fill:url(#radial-gradient);}.cls-2{fill:#d88228;}.cls-3{mix-blend-mode:screen;}.cls-4{fill:url(#linear-gradient);}</style><radialGradient id="radial-gradient" cx="28.21" cy="36.77" r="20.49" gradientTransform="translate(0)" gradientUnits="userSpaceOnUse"><stop offset="0" stop-color="#fef48c"/><stop offset="0.31" stop-color="#fdf058"/><stop offset="1" stop-color="#f9a91a"/></radialGradient><linearGradient id="linear-gradient" x1="18.88" y1="-2.49" x2="28.55" y2="37.79" gradientUnits="userSpaceOnUse"><stop offset="0" stop-color="#fff"/><stop offset="1" stop-color="#010101"/></linearGradient><symbol id="Star_-_Orange_2" data-name="Star - Orange 2" viewBox="0 0 48 45.65"><polygon class="cls-1" points="24 37.29 9.83 44.74 12.54 28.96 1.07 17.79 16.91 15.48 24 1.13 31.09 15.48 46.93 17.79 35.46 28.96 38.17 44.74 24 37.29"/><path class="cls-2" d="M24,2.26l6.52,13.21.23.47.52.08,14.58,2.12L35.3,28.42l-.38.37.09.52L37.5,43.82,24.47,37,24,36.72l-.47.24-13,6.86L13,29.3l.09-.52-.38-.37L2.15,18.14,16.73,16l.52-.08.23-.47L24,2.26M24,0,16.58,15,0,17.44l12,11.7L9.17,45.65,24,37.85l14.83,7.8L36,29.13l12-11.7L31.42,15,24,0Z"/><g class="cls-3"><path class="cls-4" d="M14.15,28.44l-.18,1L13.53,32C19.34,26.27,29,22.49,40,22.44l3.69-3.6L31.13,17l-1-.15-.47-.94L24,4.52,18.38,15.91l-.46.94-1,.15L4.3,18.84l9.1,8.87Z"/></g></symbol></defs><title>estrela</title><use width="48" height="45.65" transform="scale(1.54 1.56)" xlink:href="#Star_-_Orange_2"/></svg>