<svg id="Layer_1" data-name="Layer 1" xmlns="http://www.w3.org/2000/svg" xmlns:xlink="http://www.w3.org/1999/xlink" viewBox="0 0 200 177.17"><defs><style>.cls-1{fill:url(#linear-gradient);}.cls-2{fill:url(#linear-gradient-2);}.cls-3{fill:url(#linear-gradient-3);}.cls-4{fill:url(#linear-gradient-4);}.cls-5{fill:url(#linear-gradient-5);}.cls-6{fill:#fff;}.cls-7{fill:url(#linear-gradient-6);}</style><linearGradient id="linear-gradient" x1="66.76" y1="161.81" x2="96.2" y2="161.81" gradientUnits="userSpaceOnUse"><stop offset="0" stop-color="#087dc1"/><stop offset="0.25" stop-color="#0785a2"/><stop offset="0.56" stop-color="#068d84"/><stop offset="0.82" stop-color="#059271"/><stop offset="1" stop-color="#05946a"/></linearGradient><linearGradient id="linear-gradient-2" x1="96.2" y1="161.81" x2="122.22" y2="161.81" xlink:href="#linear-gradient"/><linearGradient id="linear-gradient-3" x1="123.45" y1="161.81" x2="133.11" y2="161.81" xlink:href="#linear-gradient"/><linearGradient id="linear-gradient-4" x1="134.35" y1="161.81" x2="165.71" y2="161.81" xlink:href="#linear-gradient"/><linearGradient id="linear-gradient-5" x1="165.92" y1="161.96" x2="200" y2="161.96" xlink:href="#linear-gradient"/><linearGradient id="linear-gradient-6" x1="-252.98" y1="380.35" x2="-108.71" y2="380.35" gradientTransform="matrix(0.87, 0.5, -0.5, 0.87, 447.51, -166.83)" xlink:href="#linear-gradient"/></defs><title>logo</title><path class="cls-1" d="M96,167.81h.25V169H95l-6.7-20.84H75.31L68,169H66.76v-1.23H67L74.29,147h15Zm-29.19,7.61h7.61l1.89-5.34H86.7l1.89,5.34H96.2v1.23H87.77l-1.89-5.34h-8.8l-1.89,5.34H66.76Zm14.94-22.3,4.21,12.19H77.16Zm-2.61,11H84l-2.26-6.62Z"/><path class="cls-2" d="M96.2,147l26,0v1.21h-26Zm9.41,28.45h7.19V154.58h9.41v1.23H114v20.84h-9.66V155.81H96.2v-1.23h9.41Z"/><path class="cls-3" d="M123.45,147h9.66v29.68h-9.66Zm1.23,1.23v27.21h7.19V148.2Z"/><path class="cls-4" d="M134.35,147H143l6.74,22.8,6.82-22.8h9.19v1.23h-8.3L150.65,171h-1.79L142,148.2h-7.65Zm23.49,29.68H142.08l-7.48-20.84h-.25v-1.23h1.27l7.24,20.84H157.1l7.5-20.84h1.11v1.23h-.25Z"/><path class="cls-5" d="M200,162a16,16,0,0,1-2,8.3,12.66,12.66,0,0,1-5.89,5.16,22.37,22.37,0,0,1-9.2,1.73,22.11,22.11,0,0,1-9.18-1.74,12.43,12.43,0,0,1-5.81-5.14,16.32,16.32,0,0,1-2-8.31,17.54,17.54,0,0,1,1.13-6.55,12.42,12.42,0,0,1,3.31-4.76,14.49,14.49,0,0,1,5.34-2.93,23.84,23.84,0,0,1,7.17-1,22.05,22.05,0,0,1,9.19,1.76,12.84,12.84,0,0,1,5.9,5.18A16,16,0,0,1,200,162Zm-1.23,0a15.16,15.16,0,0,0-2-7.63,11.9,11.9,0,0,0-5.45-4.77,20.33,20.33,0,0,0-8.48-1.62,21.88,21.88,0,0,0-6.62.93,13.6,13.6,0,0,0-4.93,2.69,11.27,11.27,0,0,0-3.05,4.37,17.27,17.27,0,0,0-1.12,6,15.55,15.55,0,0,0,1.9,7.65,11.49,11.49,0,0,0,5.35,4.73,20.39,20.39,0,0,0,8.47,1.6,20.65,20.65,0,0,0,8.49-1.59,11.71,11.71,0,0,0,5.44-4.75A15.18,15.18,0,0,0,198.77,162Zm-23.06,0q0-7.81,7-7.81,4.44,0,5.82,2.33a11.83,11.83,0,0,1,1.54,5.48,23,23,0,0,1-.55,3.77,5.1,5.1,0,0,1-2,2.8,7.87,7.87,0,0,1-4.82,1.22q-4.15,0-5.57-2.33A10.3,10.3,0,0,1,175.7,162Zm1.34.06a8.76,8.76,0,0,0,1.15,4.55q1.15,1.94,4.58,1.94a6.34,6.34,0,0,0,3.95-1,4.33,4.33,0,0,0,1.64-2.32,16.81,16.81,0,0,0,.43-3.15,9.54,9.54,0,0,0-1.24-4.54q-1.14-1.93-4.78-1.93Q177,155.6,177,162.08Z"/><path class="cls-6" d="M0,176.65v-1.38a12.35,12.35,0,0,1,.23-2.48,8.2,8.2,0,0,1,.69-2A8.67,8.67,0,0,1,2.07,169a16.2,16.2,0,0,1,1.6-1.62q.91-.81,2.08-1.66l2.54-1.86q1.34-1,2.5-1.91a13.2,13.2,0,0,0,2-2,9.11,9.11,0,0,0,1.37-2.39,8.27,8.27,0,0,0,.5-3A6.13,6.13,0,0,0,13.06,150a6.13,6.13,0,0,0-4.53-1.61,8.81,8.81,0,0,0-3.8.86,15.31,15.31,0,0,0-3.58,2.4v-2.22a14.19,14.19,0,0,1,3.64-2,11.39,11.39,0,0,1,4.07-.74,9.15,9.15,0,0,1,3.21.53,7,7,0,0,1,2.46,1.52,6.74,6.74,0,0,1,1.57,2.38,8.4,8.4,0,0,1,.55,3.12,10.29,10.29,0,0,1-.59,3.61,10.58,10.58,0,0,1-1.59,2.86,14.45,14.45,0,0,1-2.35,2.36q-1.35,1.08-2.85,2.15-2,1.42-3.37,2.52a15.11,15.11,0,0,0-2.24,2.15A6.94,6.94,0,0,0,2.42,172,7.92,7.92,0,0,0,2,174.62v.31H16.69v1.73Z"/><path class="cls-6" d="M36.69,147.18v20.06h4.6v1.71h-4.6v7.71H34.8v-7.71H20.74v-1.85q2-2.24,4-4.82t3.89-5.21q1.86-2.63,3.42-5.18t2.61-4.71ZM22.92,167.24H34.8V150.55q-1.5,2.59-3.11,5t-3.19,4.57q-1.57,2.15-3,4T22.92,167.24Z"/><path class="cls-6" d="M64.75,176.65V162.51H47.87v14.14h-2V147.18h2v13.48H64.75V147.18h2v29.48Z"/><polygon class="cls-7" points="163.19 36.07 100.71 0 38.24 36.07 38.24 108.21 100.71 144.28 163.19 108.21 163.19 36.07"/><ellipse class="cls-6" cx="94.55" cy="29.25" rx="6.16" ry="8.76" transform="translate(-4.07 37.59) rotate(-22.02)"/><path class="cls-6" d="M98,37.27c2.56-1.67,3.32-5.93,1.66-10-1.81-4.48-5.84-7.09-9-5.81l-.19.09a4.21,4.21,0,0,1,.75-.39c3.15-1.27,7.18,1.33,9,5.81S101,35.88,98,37.27Z"/><path class="cls-6" d="M96.38,76.87a50.91,50.91,0,0,1-1.44,7.85s-17,20.94-18.42,38.76c0,0-5.33-27.59,19.84-54.36A30.39,30.39,0,0,1,96.38,76.87Z"/><path class="cls-6" d="M107.43,37.84a3,3,0,0,0-.61-.95,1,1,0,0,0-1.21-.11h0a101.75,101.75,0,0,1-13.13,7.16l0,0c-4.87,2.17-8.9,3.3-11.27,3.13A5.19,5.19,0,0,1,78.05,46c-4.13-3.47,3-15.4,3.38-16-21.27,29.81-1.32,26.49,9,23.39a5.5,5.5,0,0,1,7,4c3.1,13,3.55,33.39-13.94,53.33C83.41,110.69,127.83,84.52,107.43,37.84Z"/><path class="cls-6" d="M131.56,48.06c-2.8-3.74-9.74-3.75-18.34-.72,3.46-.87,12.86-3.51,15.65,2,2.43,4.83-5,15.47-15.23,24.89a51.76,51.76,0,0,1-2.77,7.93C127.15,69.61,136.38,54.5,131.56,48.06ZM94.63,57.17c-1,.66-1.91,1.35-2.86,2.07-17,12.76-26.84,28.45-21.9,35,1.41,1.89,3.88,2.83,7.09,2.9.51-1.57,1.11-3.18,1.79-4.83-2.43,0-4.44-.63-5.33-2.14C67.1,79.51,93.68,57.94,94.63,57.17Z"/></svg>