<svg id="Layer_1" data-name="Layer 1" xmlns="http://www.w3.org/2000/svg" viewBox="0 0 68.61 82.74"><defs><style>.cls-1{fill:#fddf30;}.cls-2{fill:#d6ab29;}.cls-3{fill:#0257a3;}.cls-4{fill:#2d72ba;}.cls-5{fill:#529ed7;}.cls-6{fill:#4789c9;}.cls-7{fill:#fff3f0;}.cls-8{fill:#f2f0f0;}.cls-9{fill:#b7c4ce;}.cls-10{fill:#678d98;}.cls-11{fill:#3f5a5a;}</style></defs><title>relogio</title><path class="cls-1" d="M18.95,23.21l-6.75-7.85a1.33,1.33,0,0,0-1.87-.14l-4.2,3.61A1.33,1.33,0,0,0,6,20.7l6.75,7.85a1.33,1.33,0,0,0,1.87.14l4.2-3.61a1.33,1.33,0,0,0,.14-1.87Z"/><path class="cls-2" d="M15,12.94,12.14,9.63a1.33,1.33,0,0,0-1.87-.14L.46,17.92a1.33,1.33,0,0,0-.14,1.87l2.85,3.32A1.33,1.33,0,0,0,5,23.25l9.81-8.43A1.33,1.33,0,0,0,15,12.94Z"/><path class="cls-1" d="M62.89,19.73a1.33,1.33,0,0,0-.46-.91l-4.2-3.61a1.33,1.33,0,0,0-1.87.14L49.6,23.21a1.33,1.33,0,0,0,.14,1.87l4.2,3.61a1.33,1.33,0,0,0,1.87-.14l6.75-7.85A1.33,1.33,0,0,0,62.89,19.73Z"/><path class="cls-2" d="M68.08,17.92,58.27,9.48a1.33,1.33,0,0,0-1.87.14l-2.85,3.32a1.33,1.33,0,0,0,.14,1.87l9.81,8.43a1.33,1.33,0,0,0,.87.32h.1a1.33,1.33,0,0,0,.91-.46l2.85-3.32a1.33,1.33,0,0,0-.14-1.87Z"/><path class="cls-3" d="M30.3,7.45h8.15V19.07H30.3Z"/><path class="cls-4" d="M39.43,0H24.53A2.54,2.54,0,0,0,22,2.54V5.6a2.54,2.54,0,0,0,2.54,2.54H39.35l3.6-1V1Z"/><path class="cls-3" d="M46.94,2.54A2.54,2.54,0,0,0,44.4,0H39a2.55,2.55,0,0,1,2.57,2.53V5.61A2.55,2.55,0,0,1,39,8.15h5.4A2.54,2.54,0,0,0,46.94,5.6Z"/><path class="cls-5" d="M25.7,81.6a34.16,34.16,0,0,1,7-67.12c3.46-.18,33.76,5.38,33.76,33.07,0,20.29-18.51,36.37-34.64,35.1a34.33,34.33,0,0,1-6.1-1Z"/><path class="cls-6" d="M34.46,14.44q-1.34,0-2.66.1a34.15,34.15,0,0,1,0,68.1q1.31.1,2.66.1a34.15,34.15,0,0,0,0-68.3Z"/><circle class="cls-7" cx="34.46" cy="48.59" r="26.6"/><path class="cls-8" d="M37.89,22.22a26.66,26.66,0,0,0-6.12-.09l.81.09a26.6,26.6,0,0,1-.75,52.84,26.59,26.59,0,0,0,6.06-52.84Z"/><path class="cls-9" d="M33.25,28.27V25a1.25,1.25,0,0,1,1.18-1.27A1.21,1.21,0,0,1,35.68,25v3.35a1.21,1.21,0,0,1-1.25,1.21A1.25,1.25,0,0,1,33.25,28.27Z"/><path class="cls-9" d="M48.87,35.5A1.24,1.24,0,0,1,48,33.39L50.41,31a1.24,1.24,0,1,1,1.75,1.75l-2.41,2.41A1.23,1.23,0,0,1,48.87,35.5Z"/><path class="cls-9" d="M58.27,49.92H55a1.25,1.25,0,0,1-1.27-1.18,1.21,1.21,0,0,1,1.21-1.25h3.3a1.25,1.25,0,0,1,1.27,1.18A1.21,1.21,0,0,1,58.27,49.92Z"/><path class="cls-9" d="M51.4,66.68a1.23,1.23,0,0,1-.87-.36l-2.41-2.41a1.24,1.24,0,0,1,1.75-1.75l2.41,2.41a1.24,1.24,0,0,1-.87,2.11Z"/><path class="cls-9" d="M33.42,72.38V69.13a1.25,1.25,0,0,1,1.07-1.26,1.21,1.21,0,0,1,1.36,1.2v3.35a1.21,1.21,0,0,1-1.36,1.2A1.25,1.25,0,0,1,33.42,72.38Z"/><path class="cls-9" d="M17.79,66.79a1.24,1.24,0,0,1-.87-2.11l2.41-2.41A1.24,1.24,0,1,1,21.08,64l-2.41,2.41A1.23,1.23,0,0,1,17.79,66.79Z"/><path class="cls-9" d="M14.16,49.92h-3.3A1.25,1.25,0,0,1,9.6,48.74a1.21,1.21,0,0,1,1.21-1.25h3.3a1.25,1.25,0,0,1,1.27,1.18A1.21,1.21,0,0,1,14.16,49.92Z"/><path class="cls-9" d="M20.1,35.61a1.23,1.23,0,0,1-.87-.36l-2.41-2.41a1.24,1.24,0,1,1,1.75-1.75L21,33.5a1.24,1.24,0,0,1-.87,2.11Z"/><path class="cls-10" d="M33.08,46.51V37.88a1.34,1.34,0,0,1,1.14-1.35,1.3,1.3,0,0,1,1.46,1.29v8.74a1.3,1.3,0,0,1-1.46,1.29A1.34,1.34,0,0,1,33.08,46.51Z"/><path class="cls-10" d="M45.63,60.78a1.32,1.32,0,0,1-.94-.39L35,50.72a1.33,1.33,0,0,1,1.88-1.88l9.67,9.67a1.33,1.33,0,0,1-.94,2.27Z"/><path class="cls-11" d="M34.64,51.12a2.67,2.67,0,1,1,2.67-2.67A2.67,2.67,0,0,1,34.64,51.12Z"/></svg>